<svg width="32" height="32" viewBox="0 0 32 32" fill="none" xmlns="http://www.w3.org/2000/svg">
<g clip-path="url(#clip0_973_2688)">
<path d="M15.9997 7.79506V16.0002M15.9997 1.23096C13.0786 1.23096 10.2231 2.09716 7.79436 3.72002C5.36557 5.34289 3.47256 7.64952 2.35472 10.3482C1.23687 13.047 0.944388 16.0166 1.51426 18.8815C2.08414 21.7465 3.49077 24.3781 5.55628 26.4436C7.6218 28.5091 10.2534 29.9158 13.1184 30.4856C15.9833 31.0555 18.9529 30.763 21.6516 29.6452C24.3504 28.5273 26.657 26.6343 28.2799 24.2055C29.9027 21.7767 30.7689 18.9213 30.7689 16.0002C30.7689 12.0831 29.2129 8.32653 26.4431 5.55676C23.6734 2.787 19.9167 1.23096 15.9997 1.23096ZM17.132 23.5981L20.6438 18.4617C20.7811 18.2328 20.8604 17.9738 20.8749 17.7073C20.8894 17.4407 20.8387 17.1747 20.7272 16.9322C20.6156 16.6897 20.4466 16.478 20.2348 16.3156C20.0229 16.1532 19.7747 16.045 19.5115 16.0002H12.4879C12.2248 16.045 11.9765 16.1532 11.7647 16.3156C11.5528 16.478 11.3838 16.6897 11.2722 16.9322C11.1607 17.1747 11.11 17.4407 11.1245 17.7073C11.139 17.9738 11.2184 18.2328 11.3556 18.4617L14.8674 23.5817C14.9878 23.7723 15.1542 23.9296 15.3513 24.0391C15.5483 24.1486 15.7698 24.2069 15.9952 24.2085C16.2207 24.2102 16.4429 24.1551 16.6416 24.0485C16.8402 23.9418 17.0088 23.787 17.132 23.5981Z" stroke="white" stroke-width="2" stroke-linecap="round" stroke-linejoin="round"/>
</g>
<defs>
<clipPath id="clip0_973_2688">
<rect width="32" height="32" fill="white"/>
</clipPath>
</defs>
</svg>
