<svg width="32" height="32" viewBox="0 0 32 32" fill="none" xmlns="http://www.w3.org/2000/svg">
<path d="M17 8L21 7V9L23 11H25H26V12L30 13L29 15L30 17H29L28 19L23 22L24 24L26 23L25 25L21 27V26L19 25V24L20 22H18L17 24L16 23L14 25H13L12 24L13 22L15 20L11 16L8 17L7 18H3L2 16L4 15V13L6 12L5 9L8 8L13 10L14 9L15 11L17 8Z" fill="#406AB5"/>
<path d="M29 17L23 22L24 24L26 23L25 25L21 27V26L19 25V24L20 22H18L17 24L16 23L14 25H13L12 24L13 22L15 20L14 19L12 17H29Z" fill="#FCDF65"/>
<path d="M30.1181 15L30.8944 13.4473C31.0302 13.1758 31.035 12.8579 30.9086 12.5821C30.7816 12.3067 30.5365 12.1035 30.2426 12.0298L26.9999 11.2193V11C26.9999 10.4478 26.5521 10 25.9999 10H23.414L21.9999 8.58596V7.00002C21.9999 6.69192 21.8578 6.40139 21.6151 6.21194C21.372 6.022 21.0546 5.95364 20.7572 6.02981L16.7572 7.02981C16.516 7.09036 16.306 7.23831 16.1679 7.44534L15.1239 9.01174L14.8944 8.55276C14.7504 8.26516 14.4774 8.06448 14.16 8.01272C13.8456 7.96389 13.5199 8.06643 13.2929 8.29299L12.7592 8.82668L8.37147 7.07131C8.15272 6.98391 7.90956 6.97708 7.68348 7.05129L4.68348 8.05129C4.15956 8.2261 3.87635 8.79251 4.05116 9.31643L4.77674 11.4937L3.55262 12.1055C3.21376 12.2749 2.99989 12.6211 2.99989 13V14.3819L1.55262 15.1055C1.05848 15.3526 0.858287 15.9531 1.10536 16.4473L2.10536 18.4473C2.27479 18.7862 2.62098 19 2.99989 19H6.99989C7.26503 19 7.51942 18.8946 7.70692 18.7071L8.53993 17.874L10.7299 17.1441L13.5858 20L12.2929 21.293C12.2167 21.3687 12.1537 21.4566 12.1054 21.5528L11.1054 23.5528C10.913 23.938 10.9887 24.4029 11.2929 24.7071L12.2929 25.7071C12.4804 25.8946 12.7348 26 12.9999 26H13.9999C14.265 26 14.5194 25.8946 14.7069 25.7071L15.9999 24.4141L16.2929 24.7071C16.5199 24.9336 16.8412 25.0357 17.16 24.9873C17.4774 24.9356 17.7504 24.7349 17.8944 24.4473L17.9999 24.2359V25C17.9999 25.3789 18.2138 25.7251 18.5526 25.8946L19.9999 26.6182V27C19.9999 27.3467 20.1796 27.6685 20.474 27.8506C20.6347 27.9497 20.8173 28 20.9999 28C21.1527 28 21.306 27.9649 21.4472 27.8946L25.4472 25.8946C25.6405 25.7979 25.7977 25.6406 25.8944 25.4473L26.8944 23.4473C27.0868 23.062 27.0111 22.5972 26.7069 22.293C26.4037 21.9893 25.9384 21.9136 25.5526 22.1055L24.4472 22.6582L24.3085 22.3809L28.5145 19.8574C28.6776 19.7598 28.8095 19.6172 28.8944 19.4473L29.6181 18H29.9999C30.3466 18 30.6683 17.8203 30.8505 17.5259C31.0326 17.231 31.0492 16.8628 30.8944 16.5528L30.1181 15ZM28.1054 14.5528C27.9647 14.8345 27.9647 15.1656 28.1054 15.4473L28.4608 16.1577C28.3114 16.2534 28.1879 16.3882 28.1054 16.5528L27.2357 18.2925L22.4852 21.1426C22.0375 21.4112 21.872 21.98 22.1054 22.4473L23.1054 24.4473C23.1591 24.5547 23.2294 24.648 23.3119 24.7261L21.8422 25.461C21.7465 25.3115 21.6117 25.188 21.4472 25.1055L19.9999 24.3819V24.2359L20.8944 22.4473C21.0492 22.1372 21.0326 21.7691 20.8505 21.4741C20.6683 21.1797 20.3466 21 19.9999 21H17.9999C17.621 21 17.2748 21.2139 17.1054 21.5528L16.726 22.312L16.7069 22.293C16.3163 21.9024 15.6835 21.9024 15.2929 22.293L13.5858 24H13.414L13.2167 23.8028L13.8217 22.5923L15.7069 20.7071C16.0975 20.3164 16.0975 19.6836 15.7069 19.293L11.7069 15.293C11.4389 15.024 11.0429 14.9307 10.6835 15.0513L7.68348 16.0513C7.53651 16.1006 7.40272 16.1831 7.29286 16.293L6.58583 17H3.61805L3.34169 16.4473L4.44715 15.8946C4.78602 15.7251 4.99989 15.3789 4.99989 15V13.6182L6.44715 12.8946C6.89198 12.6719 7.10585 12.1558 6.94862 11.6836L6.26503 9.63235L7.96864 9.06448L12.6283 10.9287C13.0004 11.0767 13.4247 10.9907 13.7069 10.7071L13.726 10.688L14.1054 11.4473C14.265 11.7661 14.5819 11.9761 14.9379 11.9981C15.289 12.0244 15.6342 11.8511 15.8319 11.5547L17.6176 8.87649L19.9999 8.28079V9.00002C19.9999 9.26516 20.1054 9.51956 20.2929 9.70706L22.2929 11.7071C22.4804 11.8946 22.7348 12 22.9999 12H24.9999C24.9999 12.459 25.3124 12.8589 25.7572 12.9702L28.5477 13.668L28.1054 14.5528Z" fill="white"/>
</svg>
