<svg width="24" height="24" viewBox="0 0 24 24" fill="none" xmlns="http://www.w3.org/2000/svg">
<g clip-path="url(#clip0_12018_9359)">
<path d="M23.6586 12H0.341522V23.6583H23.6586V12Z" fill="#FFE000"/>
<path d="M23.6586 0.34153H0.341522V11.9998H23.6586V0.34153Z" fill="#164FCE"/>
<path d="M23.6585 0H0.341531C0.152906 0 0 0.152906 0 0.341531V23.6584C0 23.8471 0.152906 24 0.341531 24H1.896C2.08467 24 2.23753 23.8471 2.23753 23.6585C2.23753 23.4698 2.08463 23.3169 1.896 23.3169H0.683109V12.3416H18.9951C19.1837 12.3416 19.3366 12.1887 19.3366 12C19.3366 11.8114 19.1837 11.6585 18.9951 11.6585H0.683109V0.683109H23.3169V11.6584H20.5495C20.3609 11.6584 20.208 11.8113 20.208 12C20.208 12.1886 20.3609 12.3415 20.5495 12.3415H23.3169V23.3168H3.45047C3.2618 23.3168 3.10889 23.4697 3.10889 23.6584C3.10889 23.847 3.2618 24 3.45047 24H23.6584C23.8471 24 24 23.8471 24 23.6585V0.341531C24 0.152906 23.8471 0 23.6585 0Z" fill="black"/>
</g>
<defs>
<clipPath id="clip0_12018_9359">
<rect width="24" height="24" fill="white"/>
</clipPath>
</defs>
</svg>
