<svg width="24" height="24" viewBox="0 0 24 24" fill="none" xmlns="http://www.w3.org/2000/svg">
<g clip-path="url(#clip0_12422_106)">
<mask id="mask0_12422_106" style="mask-type:luminance" maskUnits="userSpaceOnUse" x="0" y="0" width="24" height="24">
<path d="M0 0H24V24H0V0Z" fill="white"/>
</mask>
<g mask="url(#mask0_12422_106)">
<path d="M23.659 12H0.342041V23.658H23.659V12Z" fill="#FFD700"/>
<path d="M23.659 0.342041H0.342041V12H23.659V0.342041Z" fill="#0057B8"/>
<path d="M23.659 0H0.341C0.250469 0.000264711 0.163737 0.0364136 0.0998157 0.100522C0.0358943 0.164631 -3.87002e-07 0.251469 0 0.342L0 23.658C0 23.848 0.153 24 0.342 24H1.896C1.98657 24 2.07343 23.964 2.13748 23.9C2.20152 23.8359 2.2375 23.7491 2.2375 23.6585C2.2375 23.5679 2.20152 23.4811 2.13748 23.417C2.07343 23.353 1.98657 23.317 1.896 23.317H0.683V12.342H18.995C19.0857 12.342 19.1727 12.306 19.2368 12.2418C19.301 12.1777 19.337 12.0907 19.337 12C19.337 11.9093 19.301 11.8223 19.2368 11.7582C19.1727 11.694 19.0857 11.658 18.995 11.658H0.683V0.684H23.317V11.659H20.549C20.4583 11.659 20.3713 11.695 20.3072 11.7592C20.243 11.8233 20.207 11.9103 20.207 12.001C20.207 12.0917 20.243 12.1787 20.3072 12.2428C20.3713 12.307 20.4583 12.343 20.549 12.343H23.317V23.318H3.45C3.4036 23.3155 3.35717 23.3225 3.31356 23.3385C3.26994 23.3545 3.23004 23.3793 3.19631 23.4112C3.16257 23.4432 3.13571 23.4817 3.11735 23.5244C3.09898 23.567 3.08951 23.613 3.08951 23.6595C3.08951 23.706 3.09898 23.752 3.11735 23.7946C3.13571 23.8373 3.16257 23.8758 3.19631 23.9078C3.23004 23.9397 3.26994 23.9645 3.31356 23.9805C3.35717 23.9965 3.4036 24.0035 3.45 24.001H23.658C23.7485 24.001 23.8354 23.9651 23.8995 23.9012C23.9636 23.8373 23.9997 23.7505 24 23.66V0.341C23.9997 0.250642 23.9637 0.164061 23.8998 0.100168C23.8359 0.0362752 23.7494 0.00026382 23.659 0Z" fill="black"/>
</g>
</g>
<defs>
<clipPath id="clip0_12422_106">
<rect width="24" height="24" fill="white"/>
</clipPath>
</defs>
</svg>
